<svg width="currnet" height="currnet" viewBox="0 0 1200 630" fill="none" xmlns="http://www.w3.org/2000/svg">
<g clip-path="url(#clip0_2197_4345)">
<path d="M865 314.5C865 460.579 746.579 579 600.5 579C454.421 579 336 460.579 336 314.5C336 168.421 454.421 50 600.5 50C746.579 50 865 168.421 865 314.5Z" stroke="currentColor" stroke-linecap="round" stroke-linejoin="round"/>
<path d="M1066 314.5C1066 571.589 857.589 780 600.5 780C343.411 780 135 571.589 135 314.5C135 57.4115 343.411 -151 600.5 -151C857.589 -151 1066 57.4115 1066 314.5Z" stroke="currentColor" stroke-width="0.5" stroke-linecap="round" stroke-linejoin="round"/>
<path d="M672.417 311.516H605.004V242.056L638.376 208.572L672.417 242.074V311.516ZM526.841 293.634H571.913V311.516H526.841V293.634ZM561.67 207.115H566.881L536.953 237.021H531.86L561.67 207.115ZM599.961 237.021H593.819L623.74 207.115H629.771L599.961 237.021ZM579.041 268.632H597.882V311.516H579.041V268.632ZM526.841 268.632H571.913V286.515H526.841V268.632ZM613.665 207.115L583.744 237.021H578.222L608.144 207.115H613.665ZM598.068 207.115L568.147 237.021H562.625L592.553 207.115H598.068ZM582.478 207.115L552.55 237.021H547.029L576.95 207.115H582.478ZM597.882 261.508H526.841V244.139H597.882V261.508ZM678.478 238.05L640.876 201.038C640.876 201.038 640.869 201.032 640.863 201.032L640.851 201.019C640.783 200.945 640.69 200.92 640.615 200.858C640.336 200.629 640.044 200.406 639.703 200.263C639.356 200.12 638.99 200.071 638.617 200.046C638.524 200.04 638.444 199.99 638.351 199.99H560.187C559.244 199.99 558.332 200.368 557.662 201.038L520.773 238.063C520.767 238.063 520.761 238.069 520.761 238.069V238.075C520.742 238.087 520.736 238.118 520.718 238.137C520.42 238.447 520.165 238.807 519.998 239.216C519.818 239.644 519.719 240.109 519.719 240.58V315.076C519.719 317.041 521.313 318.641 523.28 318.641H601.22C601.263 318.641 601.294 318.616 601.332 318.616C601.375 318.616 601.406 318.641 601.443 318.641H675.978C677.944 318.641 679.539 317.041 679.539 315.076V240.58C679.539 239.631 679.16 238.714 678.478 238.05" />
<path d="M558.017 373.812V378.5H519.017V373.812H535.611V370.156H523.751V355.531H553.329V360.172H529.704V365.469H553.564V370.156H541.47V373.812H558.017ZM523.47 388.531C523.47 383.469 529.095 380.656 538.423 380.656C547.681 380.656 553.236 383.469 553.283 388.531C553.236 393.523 547.681 396.359 538.423 396.359C529.095 396.359 523.47 393.523 523.47 388.531ZM529.564 388.531C529.54 390.758 532.517 391.812 538.423 391.812C544.212 391.812 547.259 390.758 547.283 388.531C547.259 386.328 544.212 385.203 538.423 385.203C532.517 385.203 529.54 386.328 529.564 388.531ZM567.662 357.734V380.961C571.576 380.891 575.185 380.609 579.193 379.766L579.99 384.781C574.74 385.93 570.146 386.117 564.662 386.094H561.662V357.734H567.662ZM573.662 371.984V367.156H582.193V354.453H587.865V394.438H582.193V371.984H573.662ZM591.381 396.312V353.656H597.006V396.312H591.381ZM617.151 363.312C617.174 371.328 620.408 379.133 627.51 382.203L623.854 386.984C619.119 384.688 615.932 380.422 614.151 375.148C612.323 380.75 609.041 385.344 604.166 387.734L600.416 382.859C607.729 379.555 611.057 371.328 611.104 363.312V356.938H617.151V363.312ZM622.729 371.891V367.062H631.119V353.656H637.026V396.406H631.119V371.891H622.729ZM677.983 353.656V378.312H672.03V368.375H665.28V363.5H672.03V353.656H677.983ZM641.796 373.672C648.71 371.445 651.897 366.008 652.061 360.641H643.483V355.812H666.639V360.641H658.155C658.225 365.516 661.296 370.648 667.952 372.875L664.999 377.609C660.264 376.062 657.007 372.945 655.155 369.102C653.28 373.367 649.858 376.766 644.842 378.359L641.796 373.672ZM649.296 395.844V380.094H677.983V395.844H649.296ZM655.296 391.062H672.124V384.781H655.296V391.062ZM451.978 452V418.062H463.884C471.009 418.062 474.361 422.07 474.337 427.062C474.361 431.422 471.759 433.367 468.806 434.188V434.516C471.97 434.703 475.673 437.609 475.697 443C475.673 448.086 472.322 452 464.306 452H451.978ZM456.197 448.25H464.259C469.58 448.25 471.642 445.906 471.619 442.953C471.642 439.508 468.853 436.578 464.494 436.578H456.197V448.25ZM456.197 432.922H463.744C467.423 432.945 470.306 430.648 470.306 427.109C470.306 424.156 468.314 421.812 463.884 421.812H456.197V432.922ZM491.107 452.516C484.17 452.539 479.482 447.289 479.482 439.391C479.482 431.445 484.17 426.219 491.107 426.219C498.022 426.219 502.662 431.445 502.639 439.391C502.662 447.289 498.022 452.539 491.107 452.516ZM483.514 439.391C483.537 444.477 485.928 448.953 491.107 448.953C496.24 448.953 498.607 444.477 498.607 439.391C498.607 434.328 496.24 429.781 491.107 429.781C485.928 429.781 483.537 434.328 483.514 439.391ZM517.862 452.516C510.924 452.539 506.237 447.289 506.237 439.391C506.237 431.445 510.924 426.219 517.862 426.219C524.776 426.219 529.417 431.445 529.393 439.391C529.417 447.289 524.776 452.539 517.862 452.516ZM510.268 439.391C510.292 444.477 512.682 448.953 517.862 448.953C522.995 448.953 525.362 444.477 525.362 439.391C525.362 434.328 522.995 429.781 517.862 429.781C512.682 429.781 510.292 434.328 510.268 439.391ZM534.21 452V418.062H538.241V437.797H538.71L549.726 426.547H554.694L543.96 437.445L555.491 452H550.382L540.937 440L538.241 442.508V452H534.21ZM572.683 433.156C572.121 431.047 570.503 429.664 567.527 429.641C564.386 429.664 562.16 431.352 562.136 433.484C562.16 435.172 563.519 436.32 566.496 437.047L570.292 437.984C574.839 439.062 577.066 441.336 577.089 444.875C577.066 449.281 573.48 452.539 567.105 452.516C561.386 452.539 557.988 449.984 557.308 445.344H561.527C561.996 447.828 563.8 449.023 567.011 449C570.644 449.023 572.917 447.5 572.917 445.109C572.917 443.305 571.628 442.133 568.746 441.453L564.902 440.562C560.472 439.531 558.105 437.117 558.105 433.719C558.105 429.359 561.925 426.219 567.527 426.219C572.8 426.219 576.105 429.031 576.621 433.156H572.683ZM585.891 436.719V452H581.859V418.062H585.891V430.531H586.219C587.414 427.906 589.688 426.219 593.719 426.219C598.922 426.219 602.391 429.289 602.391 435.828V452H598.359V436.109C598.359 432.102 596.156 429.828 592.5 429.828C588.703 429.828 585.891 432.312 585.891 436.719ZM618.786 452.516C611.848 452.539 607.161 447.289 607.161 439.391C607.161 431.445 611.848 426.219 618.786 426.219C625.7 426.219 630.34 431.445 630.317 439.391C630.34 447.289 625.7 452.539 618.786 452.516ZM611.192 439.391C611.215 444.477 613.606 448.953 618.786 448.953C623.918 448.953 626.286 444.477 626.286 439.391C626.286 434.328 623.918 429.781 618.786 429.781C613.606 429.781 611.215 434.328 611.192 439.391ZM635.134 461.562V426.547H639.024V430.578H639.493C640.36 429.219 641.907 426.219 646.852 426.219C653.251 426.219 657.681 431.281 657.681 439.344C657.681 447.43 653.251 452.539 646.899 452.516C642.048 452.539 640.36 449.516 639.493 448.109H639.165V461.562H635.134ZM639.071 439.25C639.095 444.969 641.649 448.906 646.337 448.906C651.165 448.906 653.649 444.664 653.649 439.25C653.649 433.93 651.235 429.828 646.337 429.828C641.579 429.828 639.095 433.602 639.071 439.25ZM662.451 452V426.547H666.341V430.531H666.669C667.724 427.812 670.185 426.219 673.513 426.219C676.841 426.219 679.115 427.812 680.31 430.531H680.591C681.88 427.906 684.576 426.219 688.232 426.219C692.755 426.219 696.013 428.984 696.013 434.984V452H691.982V435.031C691.958 431.281 689.615 429.828 686.826 429.828C683.287 429.828 681.271 432.219 681.247 435.453V452H677.169V434.609C677.193 431.75 675.13 429.828 672.201 429.828C669.154 429.828 666.482 432.406 666.482 436.109V452H662.451ZM700.783 444.781C700.783 438.945 705.939 437.609 710.346 437.281C711.986 437.164 716.088 436.93 717.236 436.906V434.844C717.236 431.609 715.314 429.734 711.471 429.734C708.26 429.734 706.314 431.211 705.752 433.156H701.533C702.049 429.055 706.033 426.219 711.658 426.219C714.986 426.219 721.244 427.203 721.221 435.219V452H717.236V448.531H717.049C716.205 450.242 713.885 452.586 709.455 452.609C704.627 452.586 700.783 449.75 700.783 444.781ZM704.814 444.969C704.838 447.664 707.064 449.023 710.158 449C714.705 449.023 717.236 445.977 717.236 442.766V440.211C716.041 440.281 712.033 440.586 710.814 440.656C707.158 440.891 704.838 442.18 704.814 444.969ZM727.209 461.562V426.547H731.1V430.578H731.569C732.436 429.219 733.983 426.219 738.928 426.219C745.327 426.219 749.756 431.281 749.756 439.344C749.756 447.43 745.327 452.539 738.975 452.516C734.123 452.539 732.436 449.516 731.569 448.109H731.241V461.562H727.209ZM731.147 439.25C731.17 444.969 733.725 448.906 738.413 448.906C743.241 448.906 745.725 444.664 745.725 439.25C745.725 433.93 743.311 429.828 738.413 429.828C733.655 429.828 731.17 433.602 731.147 439.25Z" />
<path d="M184.428 312.328V317.062H145.521V312.328H161.974V308.531H150.256V293.344H179.834V298.078H156.209V303.703H180.256V308.531H167.974V312.328H184.428ZM149.834 324.75V320.016H179.787V334.453H173.928V324.75H149.834ZM202.276 303.281C202.252 309.773 205.721 317.273 212.729 320.531L209.401 325.219C204.643 323.039 201.268 318.68 199.346 313.57C197.448 319.195 193.932 323.977 189.01 326.297L185.541 321.562C192.643 318.258 196.229 310.336 196.276 303.281V300.656H187.229V295.781H210.854V300.656H202.276V303.281ZM214.182 334.312V291.656H220.182V307.922H226.463V312.938H220.182V334.312H214.182Z" fill="#37B34A"/>
<circle cx="191" cy="315" r="180" stroke="currentColor" stroke-width="5"/>
<path d="M951.332 252.844V257.203H934.925V259.875H946.691V270.281H922.925V272.625H947.816V277.031H917.066V266.25H940.785V264.141H917.019V259.875H928.972V257.203H912.613V252.844H951.332ZM914.113 247.266C922.644 246.891 926.98 244.852 928.222 242.391H916.269V237.984H928.972V234.609H934.878V237.984H947.675V242.391H935.605C936.824 244.852 941.183 246.891 949.785 247.266L948.05 251.672C940.128 251.273 934.621 249.281 931.925 246.07C929.23 249.281 923.746 251.273 915.753 251.672L914.113 247.266ZM977.43 238.219V243H973.961V254.836C975.672 254.695 977.336 254.531 978.93 254.344L979.352 258.75C970.82 260.203 961.07 260.344 953.945 260.344L953.289 255.562C954.742 255.562 956.312 255.539 957.93 255.516V243H954.414V238.219H977.43ZM959.711 276.562V263.109H965.664V271.781H988.914V276.562H959.711ZM963.695 255.375C965.172 255.328 966.695 255.281 968.195 255.211V243H963.695V255.375ZM981.367 266.109V234.703H987.367V246.703H993.133V251.672H987.367V266.109H981.367ZM1010.23 244.312C1010.21 251.953 1013.47 259.664 1020.31 262.969L1016.7 267.75C1012.13 265.477 1009.04 261.258 1007.28 256.125C1005.4 261.633 1002.12 266.156 997.293 268.547L993.59 263.719C1000.83 260.391 1004.23 252.234 1004.23 244.312V237.938H1010.23V244.312ZM1022.18 277.312V234.656H1028.18V251.109H1034.47V256.172H1028.18V277.312H1022.18ZM968.881 294.656V337.312H962.834V294.656H968.881ZM933.162 325.219C944.178 320.016 949.029 313.266 949.99 303.797H935.459V299.109H956.084C956.06 312.047 951.537 322.805 936.303 330L933.162 325.219ZM985.932 296.484C991.369 296.438 995.705 299.555 996.877 304.125H1004.03V294.656H1009.98V317.578H1004.03V308.906H996.901C995.799 313.594 991.416 316.781 985.932 316.781C979.369 316.781 974.541 312.516 974.588 306.562C974.541 300.727 979.369 296.438 985.932 296.484ZM980.26 306.562C980.237 309.75 982.58 311.766 985.932 311.766C989.166 311.766 991.487 309.75 991.51 306.562C991.487 303.375 989.166 301.43 985.932 301.453C982.58 301.43 980.237 303.375 980.26 306.562ZM981.526 336.844V319.453H987.432V323.578H1004.03V319.453H1009.98V336.844H981.526ZM987.432 332.016H1004.03V328.172H987.432V332.016ZM936.847 359.156V363.844H928.222C928.292 368.203 931.339 372.562 938.207 374.344L935.488 379.031C930.636 377.742 927.285 375.047 925.363 371.625C923.488 375.516 920.066 378.609 915.05 380.109L912.191 375.422C919.058 373.547 922.222 368.719 922.269 363.844H913.691V359.156H922.269V354.469H928.316V359.156H936.847ZM917.769 389.297C917.746 384.117 923.3 381.188 932.394 381.188C941.3 381.188 946.761 384.117 946.785 389.297C946.761 394.336 941.3 397.266 932.394 397.266C923.3 397.266 917.746 394.336 917.769 389.297ZM923.769 389.297C923.722 391.617 926.722 392.766 932.394 392.766C937.925 392.766 940.878 391.617 940.878 389.297C940.878 386.859 937.925 385.781 932.394 385.781C926.722 385.781 923.722 386.859 923.769 389.297ZM940.363 380.391V354.656H946.363V364.781H952.128V369.609H946.363V380.391H940.363ZM977.758 357.141V361.922H969.273C969.297 366.914 972.297 372.047 979.211 374.25L976.164 378.891C971.43 377.344 968.172 374.297 966.32 370.5C964.422 374.648 961 377.977 956.055 379.594L952.867 375C959.922 372.727 963.156 367.242 963.227 361.922H954.508V357.141H977.758ZM958.633 386.953V382.219H987.367V397.312H981.367V386.953H958.633ZM981.367 380.391V354.656H987.367V365.016H993.133V369.984H987.367V380.391H981.367ZM1010.28 366.281C1010.25 372.773 1013.72 380.273 1020.73 383.531L1017.4 388.219C1012.65 386.039 1009.27 381.68 1007.35 376.57C1005.45 382.195 1001.93 386.977 997.012 389.297L993.543 384.562C1000.65 381.258 1004.23 373.336 1004.28 366.281V363.656H995.231V358.781H1018.86V363.656H1010.28V366.281ZM1022.18 397.312V354.656H1028.18V370.922H1034.47V375.938H1028.18V397.312H1022.18Z" fill="#37B34A"/>
<circle cx="959" cy="315" r="180" stroke="#37B34A" stroke-width="5"/>
<circle cx="336" cy="315" r="102.5" fill="#37B34A" stroke="#37B34A"/>
<path d="M334.428 285.328V290.062H295.521V285.328H311.974V281.531H300.256V266.344H329.834V271.078H306.209V276.703H330.256V281.531H317.974V285.328H334.428ZM299.834 297.75V293.016H329.787V307.453H323.928V297.75H299.834ZM372.244 264.703V288.469H366.244V264.703H372.244ZM338.729 271.359V266.578H358.51V279.281H344.635V282.844C351.76 282.797 356.799 282.656 362.541 281.672L363.291 286.453C356.752 287.555 350.987 287.719 342.526 287.719H338.776V274.734H352.557V271.359H338.729ZM343.698 306.844V290.25H349.651V293.906H366.291V290.25H372.244V306.844H343.698ZM349.651 302.062H366.291V298.547H349.651V302.062ZM311.646 334.312C311.67 342.328 314.904 350.133 322.006 353.203L318.349 357.984C313.615 355.688 310.428 351.422 308.646 346.148C306.818 351.75 303.537 356.344 298.662 358.734L294.912 353.859C302.224 350.555 305.553 342.328 305.599 334.312V327.938H311.646V334.312ZM317.224 342.891V338.062H325.615V324.656H331.521V367.406H325.615V342.891H317.224ZM372.479 324.656V349.312H366.526V339.375H359.776V334.5H366.526V324.656H372.479ZM336.291 344.672C343.205 342.445 346.393 337.008 346.557 331.641H337.979V326.812H361.135V331.641H352.651C352.721 336.516 355.791 341.648 362.448 343.875L359.494 348.609C354.76 347.062 351.502 343.945 349.651 340.102C347.776 344.367 344.354 347.766 339.338 349.359L336.291 344.672ZM343.791 366.844V351.094H372.479V366.844H343.791ZM349.791 362.062H366.619V355.781H349.791V362.062Z" fill="white"/>
</g>
<defs>
<clipPath id="clip0_2197_4345">
<rect width="1200" height="630" fill="white"/>
</clipPath>
</defs>
</svg>
