<svg fill="currentColor" height="current" width="current" version="1.1" xmlns="http://www.w3.org/2000/svg" xmlns:xlink="http://www.w3.org/1999/xlink" 
	 viewBox="0 0 512 512" xml:space="preserve">
		<path d="M472.178,73.28H39.822C17.856,73.28,0,91.159,0,113.103v285.795c0,21.958,17.864,39.822,39.822,39.822h432.356
			c21.984,0,39.822-17.927,39.822-39.822V113.103C512,91.189,494.176,73.28,472.178,73.28z M440.364,107.414L256,235.232
			L71.638,107.414H440.364z M39.822,404.585c-3.137,0-5.689-2.552-5.689-5.689v-275.95c11.454,7.941,396.844,275.132,406.23,281.639
			H39.822z M477.867,389.051L285.954,255.999l191.912-133.052V389.051z"/>
</svg>