<svg width="current" height="current" viewBox="0 0 650 650" fill="currentColor" xmlns="http://www.w3.org/2000/svg">
<path fill-rule="evenodd" clip-rule="evenodd" d="M343.411 521.753H584.655V273.244L539.192 228.5H575.52L606.347 258.843C608.789 261.217 610.143 264.501 610.143 267.896V534.49C610.143 541.524 604.437 547.249 597.399 547.249H330.667C330.603 547.249 330.544 547.229 330.483 547.207C330.417 547.184 330.348 547.161 330.267 547.161C330.203 547.161 330.145 547.181 330.083 547.202C330.017 547.225 329.949 547.249 329.868 547.249H50.947C43.909 547.249 38.2031 541.524 38.2031 534.49V267.896C38.2031 266.21 38.5584 264.545 39.2022 263.014C39.8017 261.55 40.712 260.263 41.7776 259.153C41.8083 259.123 41.8295 259.083 41.85 259.044C41.8741 258.999 41.8971 258.955 41.933 258.931V258.909C41.933 258.909 41.9552 258.887 41.9774 258.887L173.989 126.389C176.387 123.992 179.651 122.639 183.025 122.639H462.745C462.922 122.639 463.087 122.689 463.252 122.739C463.397 122.784 463.544 122.828 463.7 122.839C465.032 122.927 466.342 123.105 467.585 123.615C468.807 124.126 469.85 124.924 470.849 125.745C470.928 125.811 471.012 125.865 471.099 125.915L444.828 171.418L343.411 273.177V521.753ZM224.987 457.756H63.6908V521.753H224.987V457.756ZM206.981 148.135H188.332L81.652 255.159H99.8797L206.981 148.135ZM303.381 255.159H325.361L432.04 148.135H410.46L303.381 255.159ZM317.923 368.285H250.497V521.753H317.923V368.285ZM224.987 368.285H63.6908V432.282H224.987V368.285ZM267.325 255.159L374.405 148.135H354.645L247.566 255.159H267.325ZM211.51 255.159L318.589 148.135H298.852L191.751 255.159H211.51ZM155.695 255.159L262.796 148.135H243.015L135.935 255.159H155.695ZM63.6908 342.788H317.923V280.633H63.6908V342.788Z"/>
<path d="M377.832 248.5L507.999 23.6665L638.165 248.5H377.832ZM418.657 224.833H597.34L507.999 70.9998L418.657 224.833ZM507.999 213C511.351 213 514.162 211.866 516.43 209.598C518.698 207.33 519.832 204.519 519.832 201.166C519.832 197.814 518.698 195.003 516.43 192.735C514.162 190.467 511.351 189.333 507.999 189.333C504.646 189.333 501.836 190.467 499.567 192.735C497.299 195.003 496.165 197.814 496.165 201.166C496.165 204.519 497.299 207.33 499.567 209.598C501.836 211.866 504.646 213 507.999 213ZM496.165 177.5H519.832V118.333H496.165V177.5Z" />
</svg>
