<svg width="current" height="current" viewBox="0 0 16 16" fill="currentColor" xmlns="http://www.w3.org/2000/svg">
<path d="M7 3H6V4H7V3Z" fill="white"/>
<path d="M6 2H5V3H6V2Z" />
<path d="M7 2H6V3H7V2Z" />
<path d="M8 2H7V3H8V2Z" />
<path d="M9 2H8V3H9V2Z" />
<path d="M10 2H9V3H10V2Z" />
<path d="M11 2H10V3H11V2Z" />
<path d="M12 2H11V3H12V2Z" />
<path d="M13 2H12V3H13V2Z" />
<path d="M3 3H2V4H3V3Z" />
<path d="M5 3H4V4H5V3Z" />
<path d="M4 2H3V3H4V2Z" />
<path d="M5 2H4V3H5V2Z" />
<path d="M7 3H6V4H7V3Z" />
<path d="M9 3H8V4H9V3Z" />
<path d="M8 4H7V5H8V4Z" />
<path d="M11 3H10V4H11V3Z" />
<path d="M14 3H13V4H14V3Z" />
<path d="M2 4H1V5H2V4Z" />
<path d="M4 4H3V5H4V4Z" />
<path d="M6 4H5V5H6V4Z" />
<path d="M10 4H9V5H10V4Z" />
<path d="M15 4H14V5H15V4Z" />
<path d="M1 5H0V6H1V5Z" />
<path d="M2 5H1V6H2V5Z" />
<path d="M3 5H2V6H3V5Z" />
<path d="M4 5H3V6H4V5Z" />
<path d="M5 5H4V6H5V5Z" />
<path d="M6 5H5V6H6V5Z" />
<path d="M7 5H6V6H7V5Z" />
<path d="M8 5H7V6H8V5Z" />
<path d="M9 5H8V6H9V5Z" />
<path d="M16 5H15V6H16V5Z" />
<path d="M1 6H0V7H1V6Z" />
<path d="M9 6H8V7H9V6Z" />
<path d="M16 6H15V7H16V6Z" />
<path d="M1 7H0V8H1V7Z" />
<path d="M9 7H8V8H9V7Z" />
<path d="M16 7H15V8H16V7Z" />
<path d="M1 8H0V9H1V8Z" />
<path d="M2 8H1V9H2V8Z" />
<path d="M3 8H2V9H3V8Z" />
<path d="M4 8H3V9H4V8Z" />
<path d="M5 8H4V9H5V8Z" />
<path d="M6 8H5V9H6V8Z" />
<path d="M7 8H6V9H7V8Z" />
<path d="M8 8H7V9H8V8Z" />
<path d="M9 8H8V9H9V8Z" />
<path d="M16 8H15V9H16V8Z" />
<path d="M1 9H0V10H1V9Z" />
<path d="M6 9H5V10H6V9Z" />
<path d="M9 9H8V10H9V9Z" />
<path d="M16 9H15V10H16V9Z" />
<path d="M1 10H0V11H1V10Z" />
<path d="M2 11H1V12H2V11Z" />
<path d="M3 11H2V12H3V11Z" />
<path d="M4 11H3V12H4V11Z" />
<path d="M5 11H4V12H5V11Z" />
<path d="M6 10H5V11H6V10Z" />
<path d="M9 10H8V11H9V10Z" />
<path d="M16 10H15V11H16V10Z" />
<path d="M1 11H0V12H1V11Z" />
<path d="M6 11H5V12H6V11Z" />
<path d="M6 12H5V13H6V12Z" />
<path d="M9 12H8V13H9V12Z" />
<path d="M16 11H15V12H16V11Z" />
<path d="M16 12H15V13H16V12Z" />
<path d="M1 12H0V13H1V12Z" />
<path d="M1 13H0V14H1V13Z" />
<path d="M2 13H1V14H2V13Z" />
<path d="M3 13H2V14H3V13Z" />
<path d="M4 13H3V14H4V13Z" />
<path d="M5 13H4V14H5V13Z" />
<path d="M6 13H5V14H6V13Z" />
<path d="M7 13H6V14H7V13Z" />
<path d="M8 13H7V14H8V13Z" />
<path d="M9 13H8V14H9V13Z" />
<path d="M10 13H9V14H10V13Z" />
<path d="M11 13H10V14H11V13Z" />
<path d="M12 13H11V14H12V13Z" />
<path d="M13 13H12V14H13V13Z" />
<path d="M14 13H13V14H14V13Z" />
<path d="M15 13H14V14H15V13Z" />
<path d="M16 13H15V14H16V13Z" />
<path d="M9 11H8V12H9V11Z" />
<path d="M7 3H6V4H7V3Z" />
</svg>
