<svg width="current" height="current" fill="currentColor" viewBox="0 0 128 128" xmlns="http://www.w3.org/2000/svg">
<path d="M116.074 104.641H67.5983V54.6919L91.5955 30.6135L116.074 54.7052V104.641ZM11.3908 91.7814H43.8019V104.641H11.3908V91.7814ZM36.4364 29.5657H40.1838L18.6627 51.0712H15L36.4364 29.5657ZM63.9713 51.0712H59.5546L81.0713 29.5657H85.4077L63.9713 51.0712ZM48.9279 73.8029H62.4768V104.641H48.9279V73.8029ZM11.3908 73.8029H43.8019V86.6626H11.3908V73.8029ZM73.8262 29.5657L52.3096 51.0712H48.339L69.8557 29.5657H73.8262ZM62.6106 29.5657L41.0939 51.0712H37.1234L58.6446 29.5657H62.6106ZM51.3995 29.5657L29.8783 51.0712H25.9078L47.4245 29.5657H51.3995ZM62.4768 68.6796H11.3908V56.1901H62.4768V68.6796ZM120.433 51.8114L93.3934 25.1959C93.3934 25.1959 93.3889 25.1914 93.3844 25.1914L93.3755 25.1825C93.3264 25.129 93.2595 25.1112 93.206 25.0666C93.0052 24.9016 92.7955 24.7411 92.5502 24.6385C92.3003 24.536 92.0371 24.5003 91.7695 24.4825C91.7025 24.478 91.6445 24.4423 91.5776 24.4423H35.3701C34.692 24.4423 34.0362 24.7143 33.5544 25.1959L7.02769 51.8203C7.02323 51.8203 7.01877 51.8248 7.01877 51.8248V51.8292C7.00539 51.8381 7.00093 51.8604 6.98754 51.8738C6.7734 52.0968 6.59048 52.3554 6.47003 52.6497C6.34065 52.9573 6.26927 53.2918 6.26927 53.6306V107.2C6.26927 108.614 7.41582 109.764 8.83004 109.764H64.8769C64.9082 109.764 64.9305 109.747 64.9572 109.747C64.9885 109.747 65.0108 109.764 65.0375 109.764H118.635C120.049 109.764 121.196 108.614 121.196 107.2V53.6306C121.196 52.9484 120.924 52.2885 120.433 51.8114Z" />
</svg>