<svg width="current" height="current" fill="currentColor" viewBox="0 0 16 16" xmlns="http://www.w3.org/2000/svg">
<path d="M13 6H12V7H13V6Z" />
<path d="M12 6H11V7H12V6Z" />
<path d="M6 3H5V4H6V3Z" />
<path d="M7 3H6V4H7V3Z" />
<path d="M8 3H7V4H8V3Z" />
<path d="M9 3H8V4H9V3Z" />
<path d="M10 3H9V4H10V3Z" />
<path d="M11 4H10V5H11V4Z" />
<path d="M4 4H3V5H4V4Z" />
<path d="M5 4H4V5H5V4Z" />
<path d="M5 3H4V4H5V3Z" />
<path d="M7 4H6V5H7V4Z" />
<path d="M9 4H8V5H9V4Z" />
<path d="M3 5H2V6H3V5Z" />
<path d="M4 5H3V6H4V5Z" />
<path d="M6 5H5V6H6V5Z" />
<path d="M8 5H7V6H8V5Z" />
<path d="M10 5H9V6H10V5Z" />
<path d="M2 6H1V7H2V6Z" />
<path d="M3 6H2V7H3V6Z" />
<path d="M4 6H3V7H4V6Z" />
<path d="M5 6H4V7H5V6Z" />
<path d="M6 6H5V7H6V6Z" />
<path d="M7 6H6V7H7V6Z" />
<path d="M8 6H7V7H8V6Z" />
<path d="M9 6H8V7H9V6Z" />
<path d="M14 6H13V7H14V6Z" />
<path d="M15 6H14V7H15V6Z" />
<path d="M2 7H1V8H2V7Z" />
<path d="M9 7H8V8H9V7Z" />
<path d="M15 7H14V8H15V7Z" />
<path d="M2 8H1V9H2V8Z" />
<path d="M9 8H8V9H9V8Z" />
<path d="M15 8H14V9H15V8Z" />
<path d="M2 9H1V10H2V9Z" />
<path d="M3 9H2V10H3V9Z" />
<path d="M4 9H3V10H4V9Z" />
<path d="M5 9H4V10H5V9Z" />
<path d="M6 9H5V10H6V9Z" />
<path d="M7 9H6V10H7V9Z" />
<path d="M8 9H7V10H8V9Z" />
<path d="M9 9H8V10H9V9Z" />
<path d="M15 9H14V10H15V9Z" />
<path d="M2 10H1V11H2V10Z" />
<path d="M6 10H5V11H6V10Z" />
<path d="M9 10H8V11H9V10Z" />
<path d="M14 1H13V2H14V1Z" />
<path d="M2 11H1V12H2V11Z" />
<path d="M3 11H2V12H3V11Z" />
<path d="M4 11H3V12H4V11Z" />
<path d="M5 11H4V12H5V11Z" />
<path d="M6 11H5V12H6V11Z" />
<path d="M9 11H8V12H9V11Z" />
<path d="M2 12H1V13H2V12Z" />
<path d="M6 12H5V13H6V12Z" />
<path d="M9 12H8V13H9V12Z" />
<path d="M2 13H1V14H2V13Z" />
<path d="M3 13H2V14H3V13Z" />
<path d="M4 13H3V14H4V13Z" />
<path d="M5 13H4V14H5V13Z" />
<path d="M6 13H5V14H6V13Z" />
<path d="M7 13H6V14H7V13Z" />
<path d="M8 13H7V14H8V13Z" />
<path d="M9 13H8V14H9V13Z" />
<path d="M10 13H9V14H10V13Z" />
<path d="M12 13H11V14H12V13Z" />
<path d="M11 13H10V14H11V13Z" />
<path d="M13 13H12V14H13V13Z" />
<path d="M14 13H13V14H14V13Z" />
<path d="M15 13H14V14H15V13Z" />
<path d="M15 12H14V13H15V12Z" />
<path d="M15 11H14V12H15V11Z" />
<path d="M15 10H14V11H15V10Z" />
<path d="M11 4H10V5H11V4Z" />
<path d="M11 4H10V5H11V4Z" />
<path d="M12 1H11V2H12V1Z" />
<path d="M13 1H12V2H13V1Z" />
<path d="M14 1H13V2H14V1Z" />
<path d="M15 1H14V2H15V1Z" />
<path d="M15 2H14V3H15V2Z" />
<path d="M16 2H15V3H16V2Z" />
<path d="M14 2H13V3H14V2Z" />
<path d="M14 3H13V4H14V3Z" />
<path d="M16 3H15V4H16V3Z" />
<path d="M15 4H14V5H15V4Z" />
<path d="M16 4H15V5H16V4Z" />
<path d="M14 5H13V6H14V5Z" />
<path d="M15 5H14V6H15V5Z" />
<path d="M15 5H14V6H15V5Z" />
<path d="M16 5H15V6H16V5Z" />
<path d="M15 6H14V7H15V6Z" />
<path d="M13 3H12V4H13V3Z" />
<path d="M13 4H12V5H13V4Z" />
<path d="M13 2H12V3H13V2Z" />
<path d="M12 2H11V3H12V2Z" />
<path d="M12 3H11V4H12V3Z" />
<path d="M11 3H10V4H11V3Z" />
<path d="M11 2H10V3H11V2Z" />
<path d="M12 5H11V6H12V5Z" />
<path d="M11 5H10V6H11V5Z" />
</svg>
